<svg width="213" height="45" viewBox="0 0 213 45" fill="none" xmlns="http://www.w3.org/2000/svg">
<path d="M71.8848 31.7732H57.7953L55.495 36.8052H50.0317L62.1084 10.064H67.5717L79.6484 36.9489H74.1851L71.8848 31.7732ZM64.84 15.671L59.8081 27.1726H69.7282L64.84 15.671Z" fill="#252D3D"/>
<path d="M81.23 44.8563V17.9713H85.5431L85.8306 20.5592C87.2683 18.4027 89.8562 17.54 92.0127 17.54C97.9073 17.54 101.789 21.8531 101.789 27.4602C101.789 32.9234 98.3386 37.3803 92.3003 37.3803C90.2875 37.3803 87.4121 36.8052 85.9744 34.6487V44.7126H81.23V44.8563ZM97.0447 27.4602C97.0447 24.441 95.0319 22.1407 91.7252 22.1407C88.4185 22.1407 86.4057 24.5848 86.4057 27.4602C86.4057 30.4793 88.5622 32.7797 91.7252 32.7797C94.8881 32.7797 97.0447 30.4793 97.0447 27.4602Z" fill="#252D3D"/>
<path d="M121.486 34.5049C119.329 36.6614 117.029 37.524 114.153 37.524C108.69 37.524 104.089 34.2173 104.089 27.4601C104.089 20.7029 108.69 17.3962 114.153 17.3962C116.885 17.3962 118.898 18.1151 121.054 20.1279L118.035 23.2908C116.885 22.2844 115.591 21.8531 114.297 21.8531C111.134 21.8531 108.834 24.1534 108.834 27.4601C108.834 31.0544 111.278 32.9234 114.153 32.9234C115.591 32.9234 117.172 32.4921 118.323 31.3419L121.486 34.5049Z" fill="#252D3D"/>
<path d="M142.763 27.4602C142.763 32.9234 139.025 37.3803 132.843 37.3803C126.661 37.3803 123.067 32.9234 123.067 27.4602C123.067 21.9969 126.805 17.54 132.843 17.54C138.882 17.54 142.763 21.9969 142.763 27.4602ZM127.668 27.4602C127.668 30.3356 129.393 33.0672 132.843 33.0672C136.294 33.0672 138.019 30.3356 138.019 27.4602C138.019 24.5848 136.006 21.8531 132.843 21.8531C129.393 21.8531 127.668 24.5848 127.668 27.4602Z" fill="#252D3D"/>
<path d="M145.926 44.8563V17.9713H150.239L150.527 20.5592C151.965 18.4027 154.552 17.54 156.709 17.54C162.604 17.54 166.485 21.8531 166.485 27.4602C166.485 32.9234 163.035 37.3803 156.997 37.3803C154.984 37.3803 152.108 36.8052 150.671 34.6487V44.7126H145.926V44.8563ZM161.741 27.4602C161.741 24.441 159.728 22.1407 156.421 22.1407C153.115 22.1407 151.102 24.5848 151.102 27.4602C151.102 30.4793 153.259 32.7797 156.421 32.7797C159.584 32.7797 161.741 30.4793 161.741 27.4602Z" fill="#252D3D"/>
<path d="M184.888 17.9713H189.345V36.949H184.888L184.601 34.2174C183.594 36.3739 180.575 37.5241 178.418 37.5241C172.811 37.5241 168.642 34.0736 168.642 27.4602C168.642 20.9905 172.955 17.54 178.562 17.54C181.15 17.54 183.45 18.6902 184.601 20.5592L184.888 17.9713ZM173.53 27.4602C173.53 31.0544 175.974 33.211 179.137 33.211C186.47 33.211 186.47 21.7094 179.137 21.7094C175.974 21.7094 173.53 23.8659 173.53 27.4602Z" fill="#252D3D"/>
<path d="M211.629 17.9714L200.128 44.8564H194.952L198.546 36.6615L190.926 18.1152H196.39L199.265 26.3101L201.134 31.6296L203.147 26.4539L206.597 18.1152H211.629V17.9714Z" fill="#252D3D"/>
<path d="M11.3577 18.6902L2.73153 30.4793C-1.00649 35.655 2.58776 42.8435 9.05741 42.8435L27.46 18.6902H11.3577Z" fill="url(#paint0_linear_1189_6188)"/>
<path d="M20.2715 5.17582L36.9488 32.0608L45.2875 21.1343L34.5047 3.88189C31.6293 -0.718752 25.1597 -1.00629 21.853 3.16304L20.2715 5.17582Z" fill="url(#paint1_linear_1189_6188)"/>
<path d="M35.9425 33.3547H18.2588L23.147 40.3995C24.8722 42.8436 28.3227 42.9873 30.1917 40.5432L35.9425 33.3547Z" fill="url(#paint2_linear_1189_6188)"/>
<defs>
<linearGradient id="paint0_linear_1189_6188" x1="4.68881" y1="39.0778" x2="19.1127" y2="18.8843" gradientUnits="userSpaceOnUse">
<stop stop-color="#2CCFE5"/>
<stop offset="1" stop-color="#2A64E6"/>
</linearGradient>
<linearGradient id="paint1_linear_1189_6188" x1="28.837" y1="5.22973" x2="39.2665" y2="26.0889" gradientUnits="userSpaceOnUse">
<stop stop-color="#2CCFE5"/>
<stop offset="1" stop-color="#2A64E6"/>
</linearGradient>
<linearGradient id="paint2_linear_1189_6188" x1="32.7836" y1="30.2855" x2="22.3539" y2="38.4961" gradientUnits="userSpaceOnUse">
<stop stop-color="#2CCFE5"/>
<stop offset="1" stop-color="#2A64E6"/>
</linearGradient>
</defs>
</svg>
