<svg width="28" height="31" viewBox="0 0 28 31" fill="none" xmlns="http://www.w3.org/2000/svg">
<g clip-path="url(#clip0_55_8)">
<path d="M8.99994 20.75L18 15.6872L17.9999 5.56234L8.99994 0.5L0 5.56234V15.6872L8.99994 20.75ZM2.03266 15.4579C1.52492 15.2607 1.11249 14.6933 1.11249 14.19C1.11397 13.6868 1.52492 13.4387 2.03266 13.6344C2.54045 13.8316 2.95288 14.3991 2.95288 14.9038C2.95288 15.4056 2.54045 15.6551 2.03266 15.4579ZM1.08805 11.59C1.08805 11.0868 1.499 10.8387 2.00827 11.0345C2.51448 11.2317 2.92696 11.7991 2.92696 12.3023C2.92696 12.806 2.51453 13.0541 2.00674 12.8579C1.499 12.6607 1.08805 12.0922 1.08805 11.59ZM2.03266 10.1901C1.52492 9.99293 1.11397 9.42579 1.11397 8.92219C1.11397 8.41897 1.52492 8.17088 2.03414 8.36808C2.54193 8.56416 2.95288 9.13274 2.95288 9.63452C2.95288 10.1396 2.54045 10.3877 2.03266 10.1901ZM6.8865 18.1733C6.3787 17.9761 5.96627 17.4086 5.96627 16.9053C5.96775 16.4021 6.3787 16.154 6.8865 16.3497C7.39424 16.5469 7.80667 17.1144 7.80667 17.6192C7.80672 18.1209 7.39424 18.3705 6.8865 18.1733ZM5.94189 14.3054C5.94189 13.8022 6.35278 13.5541 6.86206 13.7498C7.36826 13.947 7.78074 14.5145 7.78074 15.0177C7.78074 15.5214 7.36832 15.7694 6.86058 15.5733C6.35278 15.3761 5.94189 14.8075 5.94189 14.3054ZM6.8865 12.9055C6.3787 12.7083 5.96776 12.1411 5.96776 11.6376C5.96776 11.1343 6.3787 10.8863 6.88798 11.0834C7.39577 11.2796 7.80667 11.8481 7.80667 12.3499C7.80672 12.855 7.39424 13.103 6.8865 12.9055ZM5.2028 5.17691C5.44017 4.80505 6.19998 4.54463 6.90228 4.59658C7.60262 4.64667 7.97811 4.99045 7.74112 5.36194C7.50259 5.7353 6.74279 5.99572 6.04207 5.94376C5.33977 5.89218 4.96428 5.5484 5.2028 5.17691ZM10.2199 5.54424C10.4568 5.17088 11.2182 4.91195 11.919 4.96199C12.6197 5.01394 12.9966 5.35735 12.7578 5.72921C12.5209 6.10219 11.7594 6.36149 11.0587 6.31109C10.3568 6.25913 9.98133 5.91573 10.2199 5.54424ZM14.6062 13.7011C14.1847 14.2118 13.5862 14.3161 13.2705 13.9373C12.9519 13.5574 13.0365 12.8365 13.4581 12.3274C13.8793 11.8167 14.4782 11.712 14.7953 12.0923C15.1124 12.4707 15.0275 13.1919 14.6062 13.7011Z" fill="#2A64E6"/>
<path d="M26.3241 9.52051H12.6541C12.1018 9.52051 11.6541 9.96822 11.6541 10.5205V28.108C11.6541 28.6603 12.1018 29.108 12.6541 29.108H26.3241C26.8763 29.108 27.3241 28.6603 27.3241 28.108V10.5205C27.3241 9.96822 26.8763 9.52051 26.3241 9.52051Z" fill="white" fill-opacity="0.5"/>
<path fill-rule="evenodd" clip-rule="evenodd" d="M26.3011 9.52051H12.677C12.112 9.52051 11.6541 9.96626 11.6541 10.5161V29.0918C11.6541 29.6417 12.112 30.0874 12.677 30.0874H26.3011C26.8662 30.0874 27.324 29.6416 27.324 29.0918V10.5162C27.324 9.96633 26.8662 9.52051 26.3011 9.52051ZM26.5768 29.0919C26.5768 29.2399 26.4531 29.3602 26.3011 29.3602H12.677C12.5249 29.3602 12.4013 29.2399 12.4013 29.0919V10.5162C12.4013 10.3682 12.525 10.2479 12.677 10.2479H26.3011C26.4531 10.2479 26.5768 10.3682 26.5768 10.5162V29.0919Z" fill="url(#paint0_linear_55_8)" fill-opacity="0.8"/>
<path fill-rule="evenodd" clip-rule="evenodd" d="M19.4889 15.397C18.4255 16.9677 17.0914 18.4255 15.5714 19.8052C17.2184 21.1461 18.5256 22.6139 19.4889 24.2113C20.4699 22.499 21.745 21.0065 23.4064 19.8052C21.7708 18.3345 20.4451 16.8647 19.4889 15.397Z" fill="url(#paint1_linear_55_8)" fill-opacity="0.8"/>
</g>
<defs>
<linearGradient id="paint0_linear_55_8" x1="11.6541" y1="19.5403" x2="27.324" y2="19.5403" gradientUnits="userSpaceOnUse">
<stop stop-color="#2A64E6"/>
<stop offset="1" stop-color="#45C2DA"/>
</linearGradient>
<linearGradient id="paint1_linear_55_8" x1="15.5714" y1="19.6912" x2="23.4064" y2="19.6912" gradientUnits="userSpaceOnUse">
<stop stop-color="#2A64E6"/>
<stop offset="1" stop-color="#45C2DA"/>
</linearGradient>
<clipPath id="clip0_55_8">
<rect width="28" height="31" fill="white"/>
</clipPath>
</defs>
</svg>
