<svg width="19" height="19" viewBox="0 0 19 19" fill="none" xmlns="http://www.w3.org/2000/svg">
<path d="M9.77979 1.58333C11.3456 1.58333 12.8762 2.04764 14.1781 2.91753C15.4799 3.78743 16.4946 5.02384 17.0938 6.47042C17.693 7.917 17.8498 9.50878 17.5443 11.0445C17.2389 12.5801 16.4849 13.9908 15.3777 15.0979C14.2705 16.2051 12.8599 16.9591 11.3243 17.2645C9.78857 17.57 8.19679 17.4132 6.75021 16.814C5.30363 16.2148 4.06722 15.2002 3.19732 13.8983C2.32743 12.5964 1.86312 11.0658 1.86312 9.5C1.86533 7.40104 2.70011 5.38869 4.1843 3.90451C5.66848 2.42032 7.68083 1.58554 9.77979 1.58333ZM9.77979 0.5C7.99976 0.5 6.2597 1.02784 4.77966 2.01677C3.29961 3.00571 2.14606 4.41131 1.46487 6.05585C0.783685 7.70038 0.605455 9.50998 0.952722 11.2558C1.29999 13.0016 2.15716 14.6053 3.41583 15.864C4.6745 17.1226 6.27815 17.9798 8.02397 18.3271C9.7698 18.6743 11.5794 18.4961 13.2239 17.8149C14.8685 17.1337 16.2741 15.9802 17.263 14.5001C18.2519 13.0201 18.7798 11.28 18.7798 9.5C18.7798 7.11305 17.8316 4.82387 16.1437 3.13604C14.4559 1.44821 12.1667 0.5 9.77979 0.5Z" fill="#717784"/>
<path d="M9.95969 1.58333C10.308 1.58333 10.923 2.19333 11.448 3.53167C12.0664 5.10833 12.4064 7.22833 12.4064 9.5C12.4064 11.7717 12.073 13.8917 11.448 15.4683C10.923 16.8017 10.3097 17.4167 9.95969 17.4167C9.60969 17.4167 8.99635 16.8067 8.47135 15.4683C7.85469 13.8917 7.51302 11.7717 7.51302 9.5C7.51302 7.22833 7.84635 5.10833 8.47135 3.53167C8.99802 2.19167 9.61302 1.58333 9.95969 1.58333ZM9.95969 0.5C8.00969 0.5 6.42969 4.53 6.42969 9.5C6.42969 14.47 8.00969 18.5 9.95969 18.5C11.9097 18.5 13.4897 14.47 13.4897 9.5C13.4897 4.53 11.9097 0.5 9.95969 0.5Z" fill="#717784"/>
<path fill-rule="evenodd" clip-rule="evenodd" d="M17.8633 12.8534H2.05664V11.77H17.8633V12.8534Z" fill="#717784"/>
<path fill-rule="evenodd" clip-rule="evenodd" d="M17.8633 7.22835H2.05664V6.14502H17.8633V7.22835Z" fill="#717784"/>
</svg>
