<svg width="20" height="17" viewBox="0 0 20 17" fill="none" xmlns="http://www.w3.org/2000/svg">
<path d="M9.06272 0.693195C8.13846 1.61509 8.13846 3.11568 9.06272 4.03994L10.9396 5.91686H2.36686C1.06036 5.91686 0 6.97604 0 8.28373C0 9.59024 1.06036 10.6506 2.36686 10.6506H10.9396L9.06272 12.5275C8.13846 13.4494 8.13846 14.95 9.06272 15.8743C9.52544 16.337 10.1302 16.5678 10.7361 16.5678C11.342 16.5678 11.9467 16.337 12.4095 15.8743L20 8.28373L12.4095 0.693195C11.4852 -0.231065 9.98698 -0.231065 9.06272 0.693195Z" fill="url(#paint0_linear_739_3628)"/>
<defs>
<linearGradient id="paint0_linear_739_3628" x1="0" y1="8.07147" x2="20" y2="8.07147" gradientUnits="userSpaceOnUse">
<stop stop-color="#2A64E6"/>
<stop offset="1" stop-color="#45C2DA"/>
</linearGradient>
</defs>
</svg>
