<svg width="19" height="19" viewBox="0 0 19 19"  xmlns="http://www.w3.org/2000/svg">
<path d="M18.5895 17.372L14.4136 13.196H14.3686C15.6557 11.6784 16.3062 9.72183 16.1839 7.73563C16.0616 5.74943 15.176 3.88745 13.7124 2.53919C12.2488 1.19093 10.3205 0.460831 8.33096 0.501622C6.34142 0.542412 4.4447 1.35093 3.03759 2.75805C1.63047 4.16516 0.821953 6.06187 0.781163 8.05142C0.740372 10.041 1.47047 11.9692 2.81873 13.4328C4.16699 14.8964 6.02897 15.782 8.01517 15.9043C10.0014 16.0266 11.9579 15.3762 13.4756 14.089C13.4756 14.089 13.4756 14.1212 13.4756 14.134L17.6515 18.31C17.7112 18.3702 17.7823 18.418 17.8606 18.4506C17.9389 18.4832 18.0229 18.5 18.1077 18.5C18.1925 18.5 18.2764 18.4832 18.3547 18.4506C18.433 18.418 18.5041 18.3702 18.5638 18.31C18.6297 18.2516 18.6829 18.1804 18.7201 18.1007C18.7573 18.021 18.7777 17.9345 18.7801 17.8465C18.7825 17.7586 18.7669 17.6711 18.7341 17.5895C18.7013 17.5078 18.6521 17.4338 18.5895 17.372ZM8.49655 14.6159C7.2259 14.6159 5.98378 14.2391 4.92727 13.5331C3.87076 12.8272 3.04731 11.8238 2.56105 10.6499C2.07479 9.47595 1.94757 8.18419 2.19546 6.93795C2.44335 5.69171 3.05523 4.54697 3.95372 3.64848C4.8522 2.74999 5.99695 2.13811 7.24319 1.89022C8.48943 1.64233 9.78119 1.76955 10.9551 2.25581C12.129 2.74207 13.1324 3.56552 13.8384 4.62203C14.5443 5.67854 14.9211 6.92066 14.9211 8.19131C14.9211 9.035 14.7549 9.87042 14.4321 10.6499C14.1092 11.4293 13.636 12.1376 13.0394 12.7341C12.4428 13.3307 11.7346 13.804 10.9551 14.1268C10.1757 14.4497 9.34023 14.6159 8.49655 14.6159Z" />
</svg>
