<svg width="20" height="19" viewBox="0 0 20 19" fill="none" xmlns="http://www.w3.org/2000/svg">
<path d="M9.77954 0.5C4.80791 0.5 0.779541 4.52837 0.779541 9.5C0.779541 14.4716 4.80791 18.5 9.77954 18.5C14.7512 18.5 18.7795 14.4716 18.7795 9.5C18.7795 4.52837 14.7512 0.5 9.77954 0.5ZM9.77954 17.7514C5.23195 17.7514 1.5281 14.0519 1.5281 9.5C1.5281 4.9524 5.22762 1.24856 9.77954 1.24856C14.3271 1.24856 18.031 4.94808 18.031 9.5C18.031 14.0476 14.3271 17.7514 9.77954 17.7514Z" fill="#717784" stroke="#717784" stroke-width="0.5"/>
<path d="M9.93525 4.74023C8.06602 4.74023 7.02323 5.6186 7.01025 7.43158H7.82372C7.79775 6.1162 8.49439 5.41956 9.89631 5.41956C10.9002 5.41956 11.7396 6.12052 11.7396 7.14168C11.7396 7.8037 11.3804 8.34023 10.9002 8.79023C9.92227 9.69023 9.64535 10.3479 9.59775 11.5811H10.4199C10.4675 10.4648 10.4415 10.2527 11.428 9.27485C12.0857 8.66043 12.5487 8.05033 12.5487 7.10273C12.5487 5.62293 11.3631 4.74023 9.93525 4.74023Z" fill="#717784" stroke="#717784" stroke-width="0.5"/>
<path d="M9.96556 12.8013C9.55883 12.8013 9.22998 13.1258 9.22998 13.5282C9.22998 13.9306 9.55883 14.2594 9.96556 14.2594C10.3723 14.2594 10.7011 13.9349 10.7011 13.5282C10.7011 13.1258 10.3723 12.8013 9.96556 12.8013Z" fill="#717784" stroke="#717784" stroke-width="0.5"/>
</svg>
