<svg width="8" height="12" viewBox="0 0 8 12" xmlns="http://www.w3.org/2000/svg">
<g clip-path="url(#clip0_1230_5915)">
<path d="M1.19714 -5.23331e-07C1.19714 -5.23331e-07 1.27439 0.0606894 1.30197 0.0855174C3.22749 2.01655 7.18335 5.99724 7.18335 6.02207C7.13094 6.06345 3.98335 9.19724 2.46059 10.7228C2.0468 11.1366 1.633 11.5503 1.18335 12C0.786108 11.589 0.394384 11.1807 0.0026599 10.7724L0.00265991 10.7338C0.0302459 10.7117 3.15025 7.59724 4.68128 6.06345C4.70611 6.03862 4.72818 6.00828 4.75301 5.97793C4.7199 5.94207 4.69507 5.91448 4.67025 5.8869C3.14749 4.36138 1.62749 2.83586 0.10473 1.31034C0.0743851 1.28 0.00541924 1.20552 0.00541925 1.19172C0.405419 0.791724 0.802661 0.394482 1.20266 -0.00551753L1.19714 -5.23331e-07Z" />
</g>
<defs>
<clipPath id="clip0_1230_5915">
<rect width="7.18345" height="12" transform="translate(7.18335 12) rotate(-180)"/>
</clipPath>
</defs>
</svg>
